<?xml version="1.0" encoding="utf-8"?>
<!-- Generator: Adobe Illustrator 24.2.1, SVG Export Plug-In . SVG Version: 6.00 Build 0)  -->
<svg version="1.1" id="Layer_1" xmlns="http://www.w3.org/2000/svg" xmlns:xlink="http://www.w3.org/1999/xlink" x="0px" y="0px"
	 viewBox="0 0 463 463" style="enable-background:new 0 0 463 463;" xml:space="preserve">
<style type="text/css">
	.st0{fill:#D4E1F4;}
	.st1{opacity:0.15;fill:#CC3C67;}
	.st2{fill:#CC3C67;}
</style>
<g>
	<g>
		<path class="st0" d="M153.6,158.2c-0.3,0.3-0.7,0.6-0.9,0.9c-1,1-1.8,2-2.6,3.1c3.5-3.3,6.9-6.7,10.6-10.4l-0.1-0.1
			C158.3,153.9,156,156,153.6,158.2C153.7,158.1,153.7,158.2,153.6,158.2z"/>
		<path class="st1" d="M337.9,380.5c-1.2,0-2.4,0-3.5-0.1c-24-1.5-46.5-11-63.4-19.1c-47-22.8-88.7-55.4-122.1-95.6
			c-28.2-33.9-47.1-65.4-59.5-99.1c-7.5-20-10.3-35.4-9.1-50c0.5-8.1,4.1-15.6,9.9-21.2l-10,10c-5.8,5.6-9.3,13.2-9.9,21.2
			c-1.2,14.6,1.6,30,9.1,50c12.5,33.7,31.4,65.1,59.5,99.1c33.4,40.2,75.1,72.8,122.1,95.6c16.9,8.1,39.4,17.6,63.4,19.1
			c1.1,0.1,2.3,0.1,3.5,0.1c11.4,0,19.7-3.5,27.1-11.4c1.5-1.8,3.1-3.5,4.7-5.2C353.6,378.4,346.6,380.5,337.9,380.5z"/>
		<path class="st0" d="M370.7,362.9l0.5-0.5l0,0C371,362.5,370.8,362.7,370.7,362.9z"/>
	</g>
	<path class="st2" d="M133,283.4c34.5,41.5,77.5,75.2,126.1,98.8c17.9,8.6,41.7,18.6,67.8,20.3c1.5,0.1,3,0.1,4.3,0.1
		c14.6,0,26.4-5,36-15.3c0.1-0.1,0.1-0.1,0.2-0.2c5-5.7,10.3-11.2,15.9-16.4l1.9-1.9c2.9-2.9,5.7-5.6,8.5-8.6
		c10.8-11.2,10.7-23.9-0.2-34.7L347,279.1c-2.8-3-8.6-8-16.4-8c-5.8,0-11.7,2.8-16.9,8.1l-28.8,28.8c-1.1,1.1-4,4-8.5,4
		c-1.9,0-3.8-0.5-5.6-1.4l-0.1-0.1c-0.2-0.1-0.5-0.3-0.7-0.4c-2.6-1.6-5.6-3.1-8.6-4.6c-3.4-1.6-6.6-3.4-9.8-5.3
		c-26.4-16.7-50.4-38.5-73.2-66.6c-0.1-0.1-0.1-0.2-0.2-0.2c-12.4-15.7-20.4-28.8-26.1-42.5l-0.2-0.5c-1.5-4.8-1.5-8.6,2.9-13
		c0.1-0.1,0.1-0.1,0.2-0.2l0.1-0.1c7.2-6.4,13.7-12.9,21.3-20.7c1.7-1.6,3.3-3.2,4.9-4.8c0.8-0.8,1.6-1.6,2.4-2.4
		c11.3-11.3,11.3-23.2,0-34.5l-22.9-22.9c-1.3-1.4-2.7-2.8-4-4.1c-1.3-1.4-2.7-2.7-4-4c-5.6-5.8-10.3-10.6-15.3-15.2l-0.2-0.2
		c-5-5-10.7-7.6-16.5-7.6c-5.8,0-11.6,2.6-16.9,7.6c0,0-0.1,0.1-0.1,0.1L75,96.9c-7.8,7.6-12.6,17.8-13.3,28.7
		c-1.4,16.5,1.7,33.5,9.8,55.2C84.4,215.8,103.9,248.4,133,283.4z M330.6,283.1c3.5,0,6.5,2.9,7.7,4.2c0.1,0.1,0.1,0.2,0.2,0.2
		l46.5,46.5c6.3,6.2,6.3,11.2,0.2,17.6c-0.2,0.2-0.5,0.5-0.7,0.7c-0.5,0.5-1,1-1.5,1.6l-63.6-63.6l2.7-2.7
		C323.8,286,327.2,283.1,330.6,283.1z M120.7,72.5c3.2,0,6.1,2.2,8,4.1l0.3,0.3c0,0,0.1,0.1,0.1,0.1c4.8,4.5,9.4,9.2,14.9,14.8
		c1.3,1.4,2.7,2.7,4,4.1c1.3,1.3,2.6,2.7,4,4.1l23,23c6.6,6.6,6.6,11,0,17.6c-0.8,0.8-1.6,1.6-2.4,2.5l-0.2,0.2L109,79.9l3.1-3.1
		C115.1,74,118.1,72.5,120.7,72.5z M73.6,126.6c0.5-8.1,4.1-15.6,9.9-21.2l17-17l63.4,63.4c-5.9,5.9-11.2,11.2-17,16.3l0,0
		c-0.3,0.3-0.7,0.6-0.9,0.9c-10.1,10.4-6.7,21.2-5.5,24.9l0.3,0.8c0,0.1,0.1,0.3,0.1,0.4c6.1,14.8,14.8,28.9,28,45.7
		c0.1,0.1,0.2,0.2,0.3,0.4c23.6,29.1,48.5,51.6,75.9,69c3.5,2.2,7.1,4.1,10.9,5.9c2.9,1.4,5.6,2.8,7.8,4.2c0.1,0.1,0.2,0.1,0.4,0.2
		l0.1,0.1c0.3,0.2,0.7,0.4,1,0.6c3.4,1.8,7.2,2.7,11,2.7c6.3,0,12-2.5,17-7.6l17.6-17.6l63.5,63.5c-5.7,5.3-11.1,10.9-16.2,16.8
		c-7.4,7.9-15.8,11.4-27.1,11.4c-1.2,0-2.4,0-3.5-0.1c-24-1.5-46.5-11-63.4-19.1c-47-22.8-88.7-55.4-122.1-95.6
		c-28.2-33.9-47.1-65.4-59.5-99.1C75.2,156.7,72.4,141.2,73.6,126.6z"/>
</g>
</svg>
