<?xml version="1.0" encoding="utf-8"?>
<!-- Generator: Adobe Illustrator 24.2.1, SVG Export Plug-In . SVG Version: 6.00 Build 0)  -->
<svg version="1.1" id="Layer_1" xmlns="http://www.w3.org/2000/svg" xmlns:xlink="http://www.w3.org/1999/xlink" x="0px" y="0px"
	 viewBox="0 0 512 512" style="enable-background:new 0 0 512 512;" xml:space="preserve">
<style type="text/css">
	.st0{opacity:0.15;fill:#CC3C67;}
	.st1{fill:#3C2E7B;}
	.st2{fill:#CC3C67;}
</style>
<path class="st0" d="M187.5,308.9c-16.1-17.1-27.9-35.8-35.1-55.6c-7.4-19.8-10.5-40.9-9.1-62c2.5-38.7,19-75.2,46.4-102.7
	c6.2-6.2,12.8-11.8,20-16.9c-22.6,7.3-43.2,20-60,36.9c-27.4,27.5-43.8,64-46.4,102.7c-1.3,21.1,1.8,42.2,9.1,62
	c7.2,19.8,19,38.5,35.1,55.6L256,444.4l29.4-31.3L187.5,308.9z"/>
<path class="st1" d="M256,327.7c63.9,0,115.9-53.3,115.9-118.8S319.9,90,256,90s-115.9,53.3-115.9,118.8S192.1,327.7,256,327.7z
	 M256,104c56.2,0,101.9,47,101.9,104.8S312.2,313.7,256,313.7s-101.9-47-101.9-104.9S199.8,104,256,104z"/>
<path class="st1" d="M237.2,244.3c2.7,2.7,7,2.7,9.8,0.1l63.8-60.9c2.8-2.7,2.9-7.1,0.2-9.9c-2.7-2.8-7.1-2.9-9.9-0.2l-58.9,56.2
	l-31.4-31.4c-2.7-2.7-7.2-2.7-9.9,0s-2.7,7.2,0,9.9L237.2,244.3z"/>
<path class="st2" d="M137.3,338.4l113.6,121c2.6,2.8,7.1,3,9.9,0.3c0.1-0.1,0.2-0.2,0.3-0.3l113.6-121c17.4-18.5,30.2-38.8,38-60.4
	c8-21.6,11.4-44.7,9.9-67.8c-2.8-42.1-20.7-81.8-50.4-111.7c-64-64.2-167.9-64.4-232.1-0.4c-0.1,0.1-0.2,0.2-0.4,0.4
	c-29.7,29.9-47.7,69.6-50.4,111.7c-1.5,23,1.9,46.1,9.9,67.8C107.2,299.6,120,319.9,137.3,338.4z M103.3,211.2
	c2.5-38.7,19-75.2,46.4-102.7c58.5-58.7,153.6-58.9,212.3-0.3c0.1,0.1,0.2,0.2,0.3,0.3c27.4,27.5,43.8,64,46.4,102.7
	c1.3,21.1-1.8,42.2-9.1,62c-7.2,19.8-19,38.5-35.1,55.6L256,444.4L147.5,328.9c-16.1-17.1-27.9-35.8-35.1-55.6
	C105.1,253.5,102,232.3,103.3,211.2z"/>
</svg>
