<?xml version="1.0" encoding="utf-8"?>
<!-- Generator: Adobe Illustrator 21.0.0, SVG Export Plug-In . SVG Version: 6.00 Build 0)  -->
<svg version="1.1" id="Layer_1" xmlns="http://www.w3.org/2000/svg" xmlns:xlink="http://www.w3.org/1999/xlink" x="0px" y="0px"
	 viewBox="0 0 512 512" style="enable-background:new 0 0 512 512;" xml:space="preserve">
<style type="text/css">
	.st0{opacity:0.15;fill:#CC3C67;enable-background:new    ;}
	.st1{fill:#CC3C67;}
	.st2{fill:#3C2E7B;}
</style>
<title>video streaming</title>
<path class="st0" d="M113.4,111.8H80.6c-19-0.1-34.5,15.3-34.6,34.3c0,0.1,0,0.3,0,0.4v196.5h32.8V146.5
	c-0.1-19,15.2-34.6,34.2-34.7C113.1,111.8,113.3,111.8,113.4,111.8z"/>
<path class="st0" d="M78.8,365.3v-12.2H45.9v12.2c0,19.3,15.3,35.5,34.6,35.5h32.8C94.1,400.7,78.8,384.6,78.8,365.3z"/>
<path class="st1" d="M438.4,102.8H391c-3.3,0-6,2.7-6,6s2.7,6,6,6h47.4c12.8,0,23.2,10.4,23.2,23.2v205H50.3V138
	c0-12.8,10.4-23.2,23.2-23.2H121c3.3,0,6-2.7,6-6s-2.7-6-6-6l0,0H73.6c-19.5,0-35.2,15.8-35.2,35.2v237.7
	c0,19.5,15.8,35.2,35.2,35.2h120.5v71.8h-27.9c-3.3,0-6,2.7-6,6s2.7,6,6,6h185c3.3,0,6-2.7,6-6s-2.7-6-6-6H318v-71.8h120.5
	c19.5,0,35.2-15.8,35.2-35.2V138C473.7,118.5,457.9,102.8,438.4,102.8z M305.9,482.8H206v-71.8h99.9V482.8z M438.4,398.9H73.6
	c-12.8,0-23.2-10.4-23.2-23.2V355h411.4v20.7C461.7,388.5,451.3,398.9,438.4,398.9L438.4,398.9z"/>
<path class="st1" d="M252.9,276.8c-3.3,0-6,2.7-6,6v34.3c0,3.3,2.7,6,6,6c3.3,0,6-2.7,6-6v-34.3
	C258.9,279.5,256.2,276.8,252.9,276.8z"/>
<path class="st1" d="M258.9,257.7c0-3.3-2.7-6-6-6c-3.3,0-6,2.7-6,6v3.9c0,3.3,2.7,6,6,6c3.3,0,6-2.7,6-6V257.7z"/>
<path class="st1" d="M204.5,285.7c-3.3,0-6,2.7-6,6v15.4c0,3.3,2.7,6,6,6s6-2.7,6-6v-15.4C210.5,288.4,207.8,285.7,204.5,285.7z"/>
<path class="st1" d="M210.5,247.7c0-3.3-2.7-6-6-6s-6,2.7-6,6v22.7c0,3.3,2.7,6,6,6s6-2.7,6-6V247.7z"/>
<path class="st1" d="M301.4,276.4c-3.3,0-6,2.7-6,6v34.7c0,3.3,2.7,6,6,6s6-2.7,6-6v-34.7C307.4,279.1,304.7,276.4,301.4,276.4z"/>
<path class="st1" d="M307.4,247.7c0-3.3-2.7-6-6-6s-6,2.7-6,6v13.7c0,3.3,2.7,6,6,6s6-2.7,6-6V247.7z"/>
<path class="st1" d="M349.9,250.3c-3.3,0-6,2.7-6,6v25.2c0,3.3,2.7,6,6,6s6-2.7,6-6v-25.2C355.9,253,353.2,250.3,349.9,250.3z"/>
<path class="st1" d="M355.9,227.7c0-3.3-2.7-6-6-6s-6,2.7-6,6v9.6c0,3.3,2.7,6,6,6s6-2.7,6-6V227.7z"/>
<path class="st1" d="M156,258.1c-3.3,0-6,2.7-6,6v23c0,3.3,2.7,6,6,6s6-2.7,6-6v-23C162,260.8,159.3,258.1,156,258.1z"/>
<path class="st1" d="M162,227.7c0-3.3-2.7-6-6-6s-6,2.7-6,6v14.8c0,3.3,2.7,6,6,6s6-2.7,6-6V227.7z"/>
<path class="st2" d="M371,17.2H141c-14.4,0-26,11.6-26,26v149c0,14.4,11.6,26,26,26h230c14.4,0,26-11.6,26-26v-149
	C397,28.9,385.4,17.3,371,17.2z M141,29.2h230c7.7,0,14,6.3,14,14v123H223.1c-3.3-11.8-15.6-18.7-27.4-15.4
	c-7.4,2.1-13.3,7.9-15.4,15.4H127v-123C127,35.5,133.3,29.3,141,29.2z M211.9,172.3c0,5.6-4.6,10.2-10.2,10.2s-10.2-4.6-10.2-10.2
	c0-5.6,4.6-10.2,10.2-10.2l0,0C207.4,162.1,211.9,166.7,211.9,172.3L211.9,172.3z M371,206.2H141c-7.7,0-14-6.3-14-14v-14h53.4
	c3.3,11.8,15.6,18.7,27.4,15.4c7.4-2.1,13.3-7.9,15.4-15.4H385v14C385,200,378.7,206.2,371,206.2z"/>
<path class="st2" d="M240.3,117.4c2,1,4.4,0.9,6.2-0.4l25.9-17.9c2.7-1.9,3.4-5.6,1.5-8.3c-0.4-0.6-0.9-1.1-1.5-1.5l-25.9-17.9
	c-2.7-1.9-6.5-1.2-8.3,1.5c-0.7,1-1.1,2.2-1.1,3.4v35.9C237,114.3,238.3,116.4,240.3,117.4z M249,87.7l9.4,6.5l-9.4,6.5V87.7z"/>
<path class="st2" d="M250.6,143.4c27.2,0,49.2-22,49.2-49.2S277.8,45,250.6,45c-27.2,0-49.2,22-49.2,49.2v0
	C201.4,121.3,223.4,143.3,250.6,143.4z M250.6,57c20.5,0,37.2,16.7,37.2,37.2s-16.7,37.2-37.2,37.2s-37.2-16.7-37.2-37.2
	c0,0,0,0,0,0C213.4,73.6,230.1,57,250.6,57z"/>
</svg>
