<?xml version="1.0" encoding="utf-8"?>
<!-- Generator: Adobe Illustrator 21.0.0, SVG Export Plug-In . SVG Version: 6.00 Build 0)  -->
<svg version="1.1" id="Capa_1" xmlns="http://www.w3.org/2000/svg" xmlns:xlink="http://www.w3.org/1999/xlink" x="0px" y="0px"
	 viewBox="0 0 54.9 54.9" style="enable-background:new 0 0 54.9 54.9;" xml:space="preserve">
<style type="text/css">
	.st0{fill:#3C2E7B;}
	.st1{fill:#CC3C67;}
</style>
<path class="st0" d="M53.9,20.8c-0.3,0-0.5-0.1-0.7-0.3c-6.9-6.9-16-10.6-25.7-10.6S8.6,13.7,1.7,20.5c-0.4,0.4-1,0.4-1.4,0
	s-0.4-1,0-1.4C7.5,11.9,17.2,7.9,27.5,7.9s19.9,4,27.2,11.2c0.4,0.4,0.4,1,0,1.4C54.4,20.7,54.2,20.8,53.9,20.8z"/>
<path class="st1" d="M6.9,26.7c-0.3,0-0.5-0.1-0.7-0.3c-0.4-0.4-0.4-1,0-1.4C17.9,13.3,37,13.3,48.7,25c0.4,0.4,0.4,1,0,1.4
	s-1,0.4-1.4,0c-11-11-28.8-11-39.7,0C7.4,26.6,7.1,26.7,6.9,26.7z"/>
<path class="st0" d="M42.2,32.6c-0.3,0-0.5-0.1-0.7-0.3c-3.7-3.7-8.7-5.8-14-5.8s-10.3,2.1-14,5.8c-0.4,0.4-1,0.4-1.4,0
	s-0.4-1,0-1.4c4.1-4.1,9.6-6.4,15.4-6.4s11.3,2.3,15.4,6.4c0.4,0.4,0.4,1,0,1.4C42.7,32.5,42.4,32.6,42.2,32.6z"/>
<path class="st1" d="M27.5,33.9c-3.6,0-6.6,2.9-6.6,6.6s2.9,6.6,6.6,6.6c3.6,0,6.6-2.9,6.6-6.6S31.1,33.9,27.5,33.9z"/>
</svg>
